              ***********************************************

                PublicHash - Largest Bittorrent Community
      
                          http://publichash.com/
    
              ***********************************************

A small town is haunted by the twin daughters of a wrongfully convicted man. Young Jordan is sent down the path to who the real killer is only to find the killer is very close to her

General
Complete name: A Haunting At Silver Falls 2013 WEBRip x264 AAC-OFFLiNE.mp4
Format: MPEG-4
Format profile: Base Media
Codec ID: isom
File size: 1.38 GiB
Duration: 1h 36mn
Overall bit rate mode: Variable
Overall bit rate: 2 059 Kbps
Encoded date: UTC 2013-05-29 02:23:32
Tagged date: UTC 2013-05-29 02:23:32

Video
ID: 1
Format: AVC
Format/Info: Advanced Video Codec
Format profile: High@L4.1
Format settings, CABAC: Yes
Format settings, ReFrames: 3 frames
Codec ID: avc1
Codec ID/Info: Advanced Video Coding
Duration: 1h 36mn
Bit rate mode: Variable
Bit rate: 1 724 Kbps
Maximum bit rate: 40.0 Mbps
Width: 720 pixels
Height: 400 pixels
Display aspect ratio: 16:9
Frame rate mode: Constant
Frame rate: 23.976 fps
Color space: YUV
Chroma subsampling: 4:2:0
Bit depth: 8 bits
Scan type: Progressive
Bits/(Pixel*Frame): 0.250
Stream size: 1.16 GiB (84%)
Writing library: x264 core 133 r2334 a3ac64b

Audio
ID: 2
Format: AAC
Format/Info: Advanced Audio Codec
Format profile: LC
Codec ID: 40
Duration: 1h 36mn
Bit rate mode: Variable
Bit rate: 331 Kbps
Maximum bit rate: 383 Kbps
Channel(s): 6 channels
Channel positions: Front: L C R, Side: L R, LFE
Sampling rate: 48.0 KHz
Compression mode: Lossy
Stream size: 227 MiB (16%)
Language: English
Encoded date: UTC 2013-05-28 22:43:57
Tagged date: UTC 2013-05-29 02:24:39

Gallery: 
http://imgsure.com/?g=451972

Subtitles: 
http://publichash.com/index.php?page=subtitles&id=f782150225fbe53faf35137c30acd5b2cf2cdf5d